# xmcd
#
# Track frame offsets:
#	150
#	17978
#	33267
#	49086
#	66103
#	79725
#	96412
#	109289
#	122063
#	137385
#	153732
#	166957
#	181398
#
# Disc length: 2636 seconds
# Revision: 1
# Processed by: cddbd v1.5.2PL0 Copyright (c) Steve Scherf et al.
# Submitted via: dBpowerAMP V12.0
#
DISCID=ad0a4a0d
DTITLE=Graham Rodger - Changing Years
DYEAR=2013
DGENRE=Country
TTITLE0=The Ghan
TTITLE1=The Colours of Australia
TTITLE2=Changing Years
TTITLE3=Empty Plate
TTITLE4=Anzac on the Wall
TTITLE5=Heart of the Kimberley
TTITLE6=The Old Tin Shack
TTITLE7=The Bushranger and his Lady
TTITLE8=The Chimney and the Rose
TTITLE9=Weeping Annie
TTITLE10=Old Blue
TTITLE11=Quambone Road
TTITLE12=Under the Spell of Highway One
EXTD=
EXTT0=
EXTT1=
EXTT2=
EXTT3=
EXTT4=
EXTT5=
EXTT6=
EXTT7=
EXTT8=
EXTT9=
EXTT10=
EXTT11=
EXTT12=
PLAYORDER=
